<?xml version="1.0" encoding="UTF-8" standalone="no"?>
<!-- Created with Inkscape (http://www.inkscape.org/) -->

<svg
   xmlns:dc="http://purl.org/dc/elements/1.1/"
   xmlns:cc="http://creativecommons.org/ns#"
   xmlns:rdf="http://www.w3.org/1999/02/22-rdf-syntax-ns#"
   xmlns:svg="http://www.w3.org/2000/svg"
   xmlns="http://www.w3.org/2000/svg"
   xmlns:sodipodi="http://sodipodi.sourceforge.net/DTD/sodipodi-0.dtd"
   xmlns:inkscape="http://www.inkscape.org/namespaces/inkscape"
   width="917.65643"
   height="154.14886"
   viewBox="0 0 242.7966 40.785274"
   version="1.1"
   id="svg19622"
   inkscape:version="0.92.3 (2405546, 2018-03-11)"
   sodipodi:docname="blackwell_law2_transparency.svg"
   inkscape:export-filename="C:\Users\Dayna\Pictures\inkscape\blackwell_law2_transparency.png"
   inkscape:export-xdpi="96"
   inkscape:export-ydpi="96">
  <defs
     id="defs19616">
    <inkscape:path-effect
       effect="spiro"
       id="path-effect849"
       is_visible="true" />
  </defs>
  <sodipodi:namedview
     id="base"
     pagecolor="#ffffff"
     bordercolor="#666666"
     borderopacity="1.0"
     inkscape:pageopacity="0.0"
     inkscape:pageshadow="2"
     inkscape:zoom="0.1767767"
     inkscape:cx="118.69645"
     inkscape:cy="-221.43816"
     inkscape:document-units="px"
     inkscape:current-layer="layer1"
     showgrid="false"
     units="px"
     inkscape:snap-page="true"
     inkscape:window-width="1680"
     inkscape:window-height="987"
     inkscape:window-x="-4"
     inkscape:window-y="-4"
     inkscape:window-maximized="1"
     showguides="true"
     inkscape:guide-bbox="true"
     guidetolerance="10"
     inkscape:snap-to-guides="true"
     inkscape:snap-text-baseline="false"
     fit-margin-top="0"
     fit-margin-left="0"
     fit-margin-right="0"
     fit-margin-bottom="0"
     inkscape:pagecheckerboard="false">
    <sodipodi:guide
       position="76.085801,68.095149"
       orientation="0,1"
       id="guide875"
       inkscape:locked="false"
       inkscape:label=""
       inkscape:color="rgb(32,255,0)" />
    <sodipodi:guide
       position="87.796051,41.585669"
       orientation="0,1"
       id="guide896"
       inkscape:locked="false"
       inkscape:label=""
       inkscape:color="rgb(255,0,201)" />
    <sodipodi:guide
       position="-10.798253,28.180419"
       orientation="0,1"
       id="guide898"
       inkscape:locked="false" />
    <sodipodi:guide
       position="28.295441,64.315349"
       orientation="1,0"
       id="guide902"
       inkscape:locked="false"
       inkscape:label=""
       inkscape:color="rgb(255,0,187)" />
    <sodipodi:guide
       position="239.03194,79.162149"
       orientation="1,0"
       id="guide904"
       inkscape:locked="false"
       inkscape:label=""
       inkscape:color="rgb(255,0,173)" />
    <sodipodi:guide
       position="22.142718,68.872249"
       orientation="0,1"
       id="guide906"
       inkscape:locked="false" />
  </sodipodi:namedview>
  <metadata
     id="metadata19619">
    <rdf:RDF>
      <cc:Work
         rdf:about="">
        <dc:format>image/svg+xml</dc:format>
        <dc:type
           rdf:resource="http://purl.org/dc/dcmitype/StillImage" />
        <dc:title />
      </cc:Work>
    </rdf:RDF>
  </metadata>
  <g
     inkscape:label="Layer 1"
     inkscape:groupmode="layer"
     id="layer1"
     transform="translate(-27.10173,-171.60737)">
    <text
       xml:space="preserve"
       style="font-style:normal;font-variant:normal;font-weight:normal;font-stretch:normal;font-size:25.39999962px;line-height:1.25;font-family:gulim;-inkscape-font-specification:gulim;font-variant-ligatures:normal;font-variant-caps:normal;font-variant-numeric:normal;font-feature-settings:normal;text-align:start;letter-spacing:0px;word-spacing:0px;writing-mode:lr-tb;text-anchor:start;fill:#000000;fill-opacity:1;stroke:none;stroke-width:0.26458332"
       x="109.58051"
       y="184.21227"
       id="text924"><tspan
         sodipodi:role="line"
         id="tspan922"
         x="109.58051"
         y="209.19058"
         style="stroke-width:0.26458332" /></text>
    <flowRoot
       xml:space="preserve"
       id="flowRoot1071"
       style="font-style:normal;font-variant:normal;font-weight:normal;font-stretch:normal;font-size:96px;line-height:1.25;font-family:gulim;-inkscape-font-specification:gulim;font-variant-ligatures:normal;font-variant-caps:normal;font-variant-numeric:normal;font-feature-settings:normal;text-align:start;letter-spacing:0px;word-spacing:0px;writing-mode:lr-tb;text-anchor:start;fill:#000000;fill-opacity:1;stroke:none"><flowRegion
         id="flowRegion1073"><rect
           id="rect1075"
           width="96.120598"
           height="113.00134"
           x="90"
           y="254.4151" /></flowRegion><flowPara
         id="flowPara1077" /></flowRoot>    <g
       aria-label="Blackwell"
       transform="matrix(1.1615831,0,0,0.86089406,3.649504,24.677332)"
       style="font-style:normal;font-variant:normal;font-weight:normal;font-stretch:normal;font-size:41.81951523px;line-height:1.25;font-family:'Century Gothic';-inkscape-font-specification:'Century Gothic';font-variant-ligatures:normal;font-variant-caps:normal;font-variant-numeric:normal;font-feature-settings:normal;text-align:start;letter-spacing:0px;word-spacing:0px;writing-mode:lr-tb;text-anchor:start;fill:#e3dbdb;fill-opacity:1;stroke:none;stroke-width:0.43561998"
       id="text19672"
       inkscape:export-xdpi="96"
       inkscape:export-ydpi="96">
      <path
         d="m 47.885335,171.93264 h 5.921709 q 3.573445,0 5.492895,0.85763 1.919451,0.83721 3.022114,2.5933 1.123082,1.75609 1.123082,3.90016 0,2.00113 -0.980145,3.65512 -0.980144,1.63358 -2.879175,2.65456 2.348264,0.79637 3.614284,1.87861 1.266021,1.06183 1.96029,2.5933 0.714689,1.51106 0.714689,3.28757 0,3.61429 -2.654559,6.12591 -2.63414,2.4912 -7.085631,2.4912 h -8.249553 z m 2.940435,2.94044 v 9.61767 h 1.715253 q 3.124212,0 4.59443,-0.57175 1.470217,-0.59217 2.327844,-1.83777 0.857627,-1.26602 0.857627,-2.7975 0,-2.06239 -1.449798,-3.22631 -1.429378,-1.18434 -4.57401,-1.18434 z m 0,12.63978 v 11.51671 h 3.716383 q 3.287569,0 4.819045,-0.63301 1.531477,-0.65343 2.450363,-2.02155 0.939305,-1.36812 0.939305,-2.96086 0,-2.00113 -1.30686,-3.49176 -1.30686,-1.49064 -3.593864,-2.04197 -1.531477,-0.36756 -5.329538,-0.36756 z"
         style="font-style:normal;font-variant:normal;font-weight:normal;font-stretch:normal;font-family:'Century Gothic';-inkscape-font-specification:'Century Gothic';fill:#e3dbdb;stroke-width:0.43561998"
         id="path877"
         inkscape:connector-curvature="0" />
      <path
         d="m 70.91874,171.17712 h 2.858756 V 201.97 H 70.91874 Z"
         style="font-style:normal;font-variant:normal;font-weight:normal;font-stretch:normal;font-family:'Century Gothic';-inkscape-font-specification:'Century Gothic';fill:#e3dbdb;stroke-width:0.43561998"
         id="path879"
         inkscape:connector-curvature="0" />
      <path
         d="M 101.8954,179.75338 V 201.97 h -2.817914 v -3.81848 q -1.796932,2.18491 -4.043097,3.28757 -2.225746,1.10266 -4.880305,1.10266 -4.716948,0 -8.065776,-3.41009 -3.328409,-3.4305 -3.328409,-8.33123 0,-4.79862 3.369248,-8.20871 3.369249,-3.41009 8.106616,-3.41009 2.736237,0 4.941563,1.16392 2.225746,1.16393 3.90016,3.49177 v -4.08394 z m -11.435021,2.18491 q -2.389103,0 -4.410652,1.18434 -2.021549,1.16392 -3.22631,3.28757 -1.184342,2.12365 -1.184342,4.49233 0,2.34827 1.204761,4.49233 1.204762,2.14407 3.226311,3.34883 2.041968,1.18434 4.369812,1.18434 2.348264,0 4.451492,-1.18434 2.103227,-1.18434 3.22631,-3.20589 1.143502,-2.02155 1.143502,-4.55359 0,-3.85932 -2.55246,-6.45262 -2.532041,-2.5933 -6.248424,-2.5933 z"
         style="font-style:normal;font-variant:normal;font-weight:normal;font-stretch:normal;font-family:'Century Gothic';-inkscape-font-specification:'Century Gothic';fill:#e3dbdb;stroke-width:0.43561998"
         id="path881"
         inkscape:connector-curvature="0" />
      <path
         d="m 129.91121,184.36823 -2.26658,1.40896 q -2.94044,-3.90016 -8.02494,-3.90016 -4.06352,0 -6.75892,2.61372 -2.67498,2.61372 -2.67498,6.35052 0,2.42995 1.22519,4.57401 1.2456,2.14407 3.38966,3.32841 2.16449,1.18434 4.83947,1.18434 4.90072,0 8.00452,-3.90016 l 2.26658,1.49064 q -1.59274,2.3891 -4.28813,3.71638 -2.67498,1.30686 -6.10549,1.30686 -5.26828,0 -8.73962,-3.34883 -3.47135,-3.34882 -3.47135,-8.14745 0,-3.22631 1.61315,-5.98297 1.63358,-2.77708 4.47192,-4.32897 2.83833,-1.5519 6.35052,-1.5519 2.20532,0 4.24729,0.67385 2.06239,0.67385 3.49177,1.7561 1.42938,1.08224 2.42994,2.75665 z"
         style="font-style:normal;font-variant:normal;font-weight:normal;font-stretch:normal;font-family:'Century Gothic';-inkscape-font-specification:'Century Gothic';fill:#e3dbdb;stroke-width:0.43561998"
         id="path883"
         inkscape:connector-curvature="0" />
      <path
         d="m 135.36327,171.17712 h 2.87917 v 17.52009 l 10.2711,-8.94383 H 152.72 l -12.19055,10.59782 12.90524,11.6188 h -4.0431 l -11.14915,-9.98522 V 201.97 h -2.87917 z"
         style="font-style:normal;font-variant:normal;font-weight:normal;font-stretch:normal;font-family:'Century Gothic';-inkscape-font-specification:'Century Gothic';fill:#e3dbdb;stroke-width:0.43561998"
         id="path885"
         inkscape:connector-curvature="0" />
      <path
         d="m 153.37343,179.75338 h 2.94044 l 6.79975,16.13156 7.12647,-16.13156 h 0.51049 l 7.10605,16.13156 6.92228,-16.13156 h 2.98127 L 178.12209,201.97 h -0.55133 l -7.06521,-15.90693 -7.12647,15.90693 h -0.53091 z"
         style="font-style:normal;font-variant:normal;font-weight:normal;font-stretch:normal;font-family:'Century Gothic';-inkscape-font-specification:'Century Gothic';fill:#e3dbdb;stroke-width:0.43561998"
         id="path887"
         inkscape:connector-curvature="0" />
      <path
         d="m 209.87469,194.59849 2.40953,1.26603 q -1.18435,2.32784 -2.73624,3.75722 -1.5519,1.42938 -3.49177,2.1849 -1.93987,0.73511 -4.39023,0.73511 -5.43164,0 -8.49459,-3.55302 -3.06295,-3.57345 -3.06295,-8.06578 0,-4.22687 2.5933,-7.53486 3.28757,-4.20646 8.80088,-4.20646 5.67667,0 9.06634,4.30856 2.40953,3.04253 2.45036,7.59612 h -19.97045 q 0.0817,3.87974 2.47078,6.37094 2.38911,2.47078 5.90129,2.47078 1.69484,0 3.28757,-0.59217 1.61316,-0.59217 2.73624,-1.57231 1.12308,-0.98015 2.42994,-3.16506 z m 0,-5.98296 q -0.57175,-2.28701 -1.67441,-3.65513 -1.08224,-1.36812 -2.87918,-2.20532 -1.79693,-0.83721 -3.77764,-0.83721 -3.26715,0 -5.61541,2.10323 -1.71526,1.53147 -2.5933,4.59443 z"
         style="font-style:normal;font-variant:normal;font-weight:normal;font-stretch:normal;font-family:'Century Gothic';-inkscape-font-specification:'Century Gothic';fill:#e3dbdb;stroke-width:0.43561998"
         id="path889"
         inkscape:connector-curvature="0" />
      <path
         d="m 217.94047,171.17712 h 2.85875 V 201.97 h -2.85875 z"
         style="font-style:normal;font-variant:normal;font-weight:normal;font-stretch:normal;font-family:'Century Gothic';-inkscape-font-specification:'Century Gothic';fill:#e3dbdb;stroke-width:0.43561998"
         id="path891"
         inkscape:connector-curvature="0" />
      <path
         d="m 226.35339,171.17712 h 2.85875 V 201.97 h -2.85875 z"
         style="font-style:normal;font-variant:normal;font-weight:normal;font-stretch:normal;font-family:'Century Gothic';-inkscape-font-specification:'Century Gothic';fill:#e3dbdb;stroke-width:0.43561998"
         id="path893"
         inkscape:connector-curvature="0" />
    </g>
    <text
       xml:space="preserve"
       style="font-style:normal;font-variant:normal;font-weight:normal;font-stretch:normal;font-size:12.53859711px;line-height:1.25;font-family:gulim;-inkscape-font-specification:'gulim, Normal';font-variant-ligatures:normal;font-variant-caps:normal;font-variant-numeric:normal;font-feature-settings:normal;text-align:start;letter-spacing:20.11496735px;word-spacing:0px;writing-mode:lr-tb;text-anchor:start;fill:#e3dbdb;fill-opacity:1;stroke:none;stroke-width:0.08095744"
       x="54.698997"
       y="223.71016"
       id="text1031"
       transform="scale(1.061635,0.94194332)"
       inkscape:export-xdpi="96"
       inkscape:export-ydpi="96"><tspan
         sodipodi:role="line"
         id="tspan1033"
         x="54.698997"
         y="223.71016"
         style="stroke-width:0.08095744">LAW FIRM</tspan></text>
    <path
       style="opacity:1;fill:#e3dbdb;fill-opacity:1;fill-rule:nonzero;stroke:none;stroke-width:1.30033982;stroke-linecap:round;stroke-linejoin:round;stroke-miterlimit:4;stroke-dasharray:none;stroke-dashoffset:0;stroke-opacity:1;paint-order:stroke fill markers"
       d="M 0,1.6445312 V 152.50391 H 13.371094 V 1.6445312 Z m 56.859375,0 c 8.108507,1.8932511 14.406428,5.421878 18.882813,10.5957028 7.059749,8.082712 10.589843,18.397865 10.589843,30.945313 0,13.548164 -5.145064,24.439113 -15.435547,32.675781 11.666536,5.927322 17.5,17.204739 17.5,33.832032 0,13.31723 -3.62014,24.05711 -10.859375,32.2168 -4.590139,5.17376 -10.108541,8.70048 -16.550781,10.59375 H 101.76758 V 1.6445312 Z M 40.564453,29.560547 v 33.253906 c 12.145163,-0.384891 18.216797,-5.812214 18.216797,-16.28125 0,-6.235235 -1.464893,-10.583572 -4.396484,-13.046875 -2.871763,-2.463302 -7.478504,-3.771825 -13.820313,-3.925781 z m 0,61.197265 V 124.12695 C 47.444718,123.973 52.589782,122.62622 56,120.08594 c 3.470047,-2.61726 5.205078,-6.88909 5.205078,-12.81641 0,-11.007882 -6.133618,-16.511718 -18.398437,-16.511718 z"
       id="rect1061"
       inkscape:connector-curvature="0"
       transform="matrix(0.26458368,0,0,0.26458368,27.101572,171.60737)" />
  </g>
</svg>
